<?xml version="1.0" encoding="utf-8"?>
<!-- Generator: Adobe Illustrator 17.1.0, SVG Export Plug-In . SVG Version: 6.00 Build 0)  -->
<!DOCTYPE svg PUBLIC "-//W3C//DTD SVG 1.1//EN" "http://www.w3.org/Graphics/SVG/1.1/DTD/svg11.dtd">
<svg version="1.1" id="Layer_1" xmlns="http://www.w3.org/2000/svg" xmlns:xlink="http://www.w3.org/1999/xlink" x="0px" y="0px"
	 width="64px" height="64px" viewBox="0 0 64 64" enable-background="new 0 0 64 64" xml:space="preserve">
<g>
	<path fill="none" stroke="#fff" stroke-width="1.5" stroke-linecap="round" stroke-linejoin="round" stroke-miterlimit="10" d="
		M14.9,49.3c-8.8-8.8-3.5-13.8-0.8-15.1c2.7-1.3,6.9-2.4,6.9-2.4s4.2-1.2,4.6-5.4c0.4-3.5,7.1-8.1,7.1-8.1s-4.5,7.5-2.7,9.5
		c1.9,2,2.8,0.5,4.5,2"/>
	<path fill="none" stroke="#fff" stroke-width="1.5" stroke-linecap="round" stroke-linejoin="round" stroke-miterlimit="10" d="
		M14.9,49.3c8.8,8.8,13.8,3.5,15.1,0.8c1.3-2.7,1.3-5.4,2.1-7.2c0,0,1-3.6,6.2-4.8c3.4-0.8,4.9-4.4,4.9-4.4s-4.8,2.3-6.9,0.5
		c-2-1.9-0.5-2.8-2-4.5"/>
	
		<line fill="none" stroke="#fff" stroke-width="1.5" stroke-linecap="round" stroke-linejoin="round" stroke-miterlimit="10" x1="18.2" y1="42.4" x2="21.8" y2="46"/>
	
		<line fill="none" stroke="#fff" stroke-width="1.5" stroke-linecap="round" stroke-linejoin="round" stroke-miterlimit="10" x1="21.8" y1="40.3" x2="23.9" y2="42.4"/>
	
		<polyline fill="none" stroke="#fff" stroke-width="1.5" stroke-linecap="round" stroke-linejoin="round" stroke-miterlimit="10" points="
		35.2,31.1 47.2,19.1 45.1,17 33.1,29 	"/>
	
		<line fill="none" stroke="#fff" stroke-width="1.5" stroke-linecap="round" stroke-linejoin="round" stroke-miterlimit="10" x1="49.3" y1="9.9" x2="50.1" y2="10.6"/>
	
		<line fill="none" stroke="#fff" stroke-width="1.5" stroke-linecap="round" stroke-linejoin="round" stroke-miterlimit="10" x1="46.5" y1="11.3" x2="47.2" y2="12"/>
	
		<line fill="none" stroke="#fff" stroke-width="1.5" stroke-linecap="round" stroke-linejoin="round" stroke-miterlimit="10" x1="43.7" y1="12.7" x2="45.1" y2="14.1"/>
	<path fill="none" stroke="#fff" stroke-width="1.5" stroke-linecap="round" stroke-linejoin="round" stroke-miterlimit="10" d="
		M47,19.5l-2.7-2.7c-0.4-0.4-0.4-1.2,0.2-1.6l6-4.3c0.4-0.3,1-0.3,1.3,0.1l1.9,1.9c0.4,0.4,0.4,1,0,1.4l-5.1,5.1
		C48.1,19.9,47.4,19.9,47,19.5z"/>
</g>
</svg>
